#!OML:ASF E:\Mandelcareful walks\Project 1\Capture day 1\Session 1\Subject1.ASF
:FULLY-SPECIFIED
:DEGREES
982
root 24.9232 15.9602 1.93482 -1102.6 96.8405 -1110.96
lowerback 28.9326 0.0824654 0.329216
upperback 7.98786 0.926467 -0.73655
thorax -6.95983 0.774647 -1.36141
lowerneck -25.837 7.39998 1.78983
upperneck 22.1658 12.8047 -9.99879
head 12.4821 4.59061 -1.69367
rclavicle 1.59028e-014 1.47101e-014
rhumerus -18.8629 4.8615 -79.732
rradius 51.2116
rwrist -20.6389
rhand -14.5263 -28.1671
rfingers 7.12502
rthumb 11.6216 -57.8249
lclavicle 1.59028e-014 1.47101e-014
lhumerus -16.0416 -11.6143 85.8399
lradius 41.3156
lwrist 17.5883
lhand -23.196 -12.6292
lfingers 7.12502
lthumb 3.25386 17.3257
rfemur -34.3038 -13.1945 14.8677
rtibia 51.5618
rfoot -21.6334 -7.66236
rtoes 1.90848
lfemur -29.3356 10.6862 -14.7829
ltibia 49.6432
lfoot -22.2009 -1.05869
ltoes -5.46915
983
root 24.9312 15.9614 1.91233 -1101.69 96.8426 -1109.97
lowerback 29.0023 0.00208391 0.532891
upperback 7.89639 0.874009 -0.726174
thorax -7.0953 0.743676 -1.45252
lowerneck -25.9076 6.45507 1.026
upperneck 22.0848 11.551 -9.35669
head 12.2751 4.05715 -1.57533
rclavicle 3.18055e-015 3.37934e-014
rhumerus -19.1954 4.83632 -79.9136
rradius 51.1283
rwrist -20.6923
rhand -13.6143 -29.1655
rfingers 7.12502
rthumb 12.501 -58.7716
lclavicle 3.18055e-015 3.37934e-014
lhumerus -16.2102 -11.8709 85.9486
lradius 41.4542
lwrist 17.4654
lhand -23.2352 -13.0996
lfingers 7.12502
lthumb 3.21595 16.8559
rfemur -34.0537 -13.2432 14.8733
rtibia 51.4431
rfoot -21.6837 -7.62127
rtoes 2.18288
lfemur -29.2174 10.6087 -14.7255
ltibia 49.6645
lfoot -22.2906 -0.99465
ltoes -5.89509
984
root 24.9432 15.9623 1.89574 -1104.03 96.8972 -1112.33
lowerback 28.8108 0.0709118 0.093576
upperback 7.93108 0.83632 -0.738309
thorax -6.96979 0.729093 -1.19534
lowerneck -26.2217 5.56946 0.241943
upperneck 22.053 10.4038 -8.7001
head 12.1591 3.55718 -1.41743
rclavicle 2.50469e-014 4.25399e-014
rhumerus -19.1589 4.91804 -80.038
rradius 50.8655
rwrist -20.7013
rhand -14.1227 -28.7303
rfingers 7.12502
rthumb 12.0108 -58.3657
lclavicle 2.50469e-014 4.25399e-014
lhumerus -16.2017 -12.1049 86.0153
lradius 41.6841
lwrist 17.5224
lhand -23.1967 -13.0478
lfingers 7.12502
lthumb 3.25314 16.9071
rfemur -33.9824 -13.1973 14.4886
rtibia 51.3634
rfoot -21.6751 -7.67453
rtoes 1.88177
lfemur -29.1382 10.5768 -15.0827
ltibia 49.6754
lfoot -22.4172 -0.940764
ltoes -5.86123
985
root 24.9563 15.9657 1.87739 -1106.36 96.8097 -1114.71
lowerback 28.7578 0.180472 -0.28573
upperback 7.85372 0.854869 -0.77421
thorax -7.03394 0.735135 -1.02255
lowerneck -26.461 4.74338 -0.462928
upperneck 22.0834 9.30047 -7.96395
head 12.0727 3.093 -1.23262
rclavicle 1.11319e-014 4.21423e-014
rhumerus -19.3495 4.94043 -80.2226
rradius 50.7301
rwrist -20.6118
rhand -14.4102 -28.501
rfingers 7.12502
rthumb 11.7336 -58.1523
lclavicle 1.11319e-014 4.21423e-014
lhumerus -16.3302 -12.3653 86.0941
lradius 41.9829
lwrist 17.7497
lhand -23.1771 -12.6098
lfingers 7.12502
lthumb 3.27208 17.3449
rfemur -33.9805 -13.0502 14.1806
rtibia 51.3002
rfoot -21.5965 -7.63083
rtoes 2.02158
lfemur -29.0631 10.6741 -15.3797
ltibia 49.6977
lfoot -22.547 -0.892997
ltoes -5.77454
986
root 24.9613 15.9657 1.85348 -1104.26 96.4774 -1112.59
lowerback 28.7197 0.138605 -0.0739701
upperback 7.84762 0.864604 -0.683922
thorax -7.02196 0.736182 -1.04684
lowerneck -26.5604 4.06167 -0.895415
upperneck 21.8563 8.33883 -7.48437
head 11.9113 2.69568 -1.15982
rclavicle -4.77083e-015 -9.14409e-015
rhumerus -19.3723 5.00819 -80.4268
rradius 50.6084
rwrist -20.5627
rhand -14.6319 -27.9467
rfingers 7.12502
rthumb 11.5198 -57.6101
lclavicle -4.77083e-015 -9.14409e-015
lhumerus -16.3465 -12.4394 86.128
lradius 42.3193
lwrist 17.9453
lhand -23.2399 -12.1038
lfingers 7.12502
lthumb 3.21144 17.8518
rfemur -33.9108 -12.8875 14.5133
rtibia 51.2056
rfoot -21.5527 -7.56993
rtoes 2.13906
lfemur -29.0499 10.8468 -15.044
ltibia 49.7613
lfoot -22.5686 -0.873278
ltoes -6.01122
987
root 24.9615 15.963 1.8292 -1101.6 96.2136 -1109.92
lowerback 28.6876 0.0993108 0.229424
upperback 7.88075 0.910531 -0.568234
thorax -6.96743 0.756313 -1.10757
lowerneck -26.7537 3.34329 -1.30895
upperneck 21.6309 7.40546 -7.24279
head 11.7952 2.27889 -1.1698
rclavicle -1.94809e-014 -1.43125e-014
rhumerus -19.2465 5.01925 -80.4543
rradius 50.4245
rwrist -20.6499
rhand -14.6647 -27.5539
rfingers 7.12502
rthumb 11.4881 -57.2191
lclavicle -1.94809e-014 -1.43125e-014
lhumerus -16.1996 -12.6359 86.2191
lradius 42.5133
lwrist 18.0883
lhand -23.2052 -11.8672
lfingers 7.12502
lthumb 3.24497 18.0879
rfemur -33.8616 -12.7654 14.856
rtibia 51.0982
rfoot -21.4999 -7.57558
rtoes 1.85732
lfemur -29.111 10.9712 -14.7062
ltibia 49.8639
lfoot -22.6017 -0.877176
ltoes -6.18833
988
root 24.9665 15.9667 1.80592 -1100.61 96.0891 -1108.93
lowerback 28.6222 0.0659465 0.308989
upperback 7.88433 0.889852 -0.548
thorax -6.9319 0.745267 -1.12267
lowerneck -27.1464 2.61699 -2.13295
upperneck 21.7939 6.48487 -6.34464
head 11.8271 1.89799 -0.865704
rclavicle 7.95139e-015 5.56597e-015
rhumerus -19.2469 4.97376 -80.5755
rradius 50.3464
rwrist -20.6439
rhand -14.6341 -27.5325
rfingers 7.12502
rthumb 11.5177 -57.1961
lclavicle 7.95139e-015 5.56597e-015
lhumerus -16.1282 -12.8898 86.2043
lradius 42.6777
lwrist 18.1458
lhand -23.1993 -12.1905
lfingers 7.12502
lthumb 3.25061 17.7644
rfemur -33.7935 -12.7036 14.9398
rtibia 50.9996
rfoot -21.3862 -7.65142
rtoes 1.50487
lfemur -29.1323 10.9881 -14.6173
ltibia 49.9884
lfoot -22.7349 -0.859723
ltoes -6.16016
989
root 24.9703 15.9688 1.78341 -1099.61 95.9397 -1107.9
lowerback 28.7102 0.0528596 0.327549
upperback 7.76766 0.87025 -0.503538
thorax -7.10621 0.729117 -1.08056
lowerneck -26.5825 1.83544 -3.57371
upperneck 21.339 5.32457 -4.4109
head 11.4008 1.53846 -0.126541
rclavicle 1.51076e-014 1.39149e-014
rhumerus -19.543 4.86788 -80.7584
rradius 50.4882
rwrist -20.4561
rhand -14.5381 -27.7468
rfingers 7.12502
rthumb 11.6102 -57.4051
lclavicle 1.51076e-014 1.39149e-014
lhumerus -16.3431 -13.0209 86.2661
lradius 42.9439
lwrist 18.1764
lhand -23.3609 -12.2772
lfingers 7.12502
lthumb 3.09456 17.6801
rfemur -33.7444 -12.584 15.0423
rtibia 50.939
rfoot -21.2825 -7.78863
rtoes 1.10766
lfemur -29.1124 10.9798 -14.4987
ltibia 50.1002
lfoot -22.8781 -0.81427
ltoes -6.09689
990
root 24.9683 15.9626 1.76387 -1098.98 95.7312 -1107.27
lowerback 28.8236 0.080829 0.200011
upperback 7.66857 0.86713 -0.424202
thorax -7.27497 0.722668 -0.92098
lowerneck -25.9803 1.49446 -3.48202
upperneck 20.5103 4.78506 -4.66893
head 10.9874 1.30987 -0.332868
rclavicle -3.26007e-014 1.19271e-015
rhumerus -19.7575 4.9671 -80.9044
rradius 50.6695
rwrist -20.4125
rhand -14.4962 -27.9739
rfingers 7.12502
rthumb 11.6506 -57.63
lclavicle -3.26007e-014 1.19271e-015
lhumerus -16.4732 -12.9593 86.3432
lradius 43.2061
lwrist 18.2204
lhand -23.3878 -11.7139
lfingers 7.12502
lthumb 3.0686 18.2437
rfemur -33.801 -12.3012 15.1362
rtibia 50.9389
rfoot -21.2275 -7.93388
rtoes 1.1005
lfemur -29.0993 11.0279 -14.3858
ltibia 50.1591
lfoot -22.9576 -0.810806
ltoes -5.66107
991
root 24.9754 15.9625 1.74066 -1100.64 95.6865 -1108.97
lowerback 28.7666 0.123343 -0.0445201
upperback 7.69866 0.853971 -0.421184
thorax -7.21641 0.719064 -0.770675
lowerneck -26.4108 1.10981 -3.82357
upperneck 20.5915 4.28881 -4.22367
head 11.0697 1.1028 -0.197077
rclavicle 1.78906e-015 -3.37934e-014
rhumerus -19.7019 5.02051 -80.9088
rradius 50.754
rwrist -20.4827
rhand -14.6054 -28.0481
rfingers 7.12502
rthumb 11.5453 -57.7101
lclavicle 1.78906e-015 -3.37934e-014
lhumerus -16.321 -13.0984 86.4189
lradius 43.3821
lwrist 18.3071
lhand -23.3741 -11.6061
lfingers 7.12502
lthumb 3.0818 18.3514
rfemur -33.834 -12.2588 14.8918
rtibia 50.9639
rfoot -21.2499 -7.8625
rtoes 1.10164
lfemur -29.065 10.9938 -14.623
ltibia 50.1671
lfoot -23.04 -0.741965
ltoes -5.21793
992
root 24.9903 15.9695 1.71239 -1105.8 95.9048 -1114.21
lowerback 28.6859 0.176434 -0.627249
upperback 7.63135 0.73712 -0.562845
thorax -7.25654 0.665183 -0.551922
lowerneck -26.8696 0.428904 -4.86155
upperneck 21.1804 3.35362 -2.56953
head 11.309 0.783329 0.421608
rclavicle 1.82882e-014 3.97569e-015
rhumerus -19.8265 4.93719 -81.0069
rradius 50.7921
rwrist -20.3642
rhand -14.6409 -27.9596
rfingers 7.12502
rthumb 11.5111 -57.6236
lclavicle 1.82882e-014 3.97569e-015
lhumerus -16.467 -13.2757 86.465
lradius 43.5625
lwrist 18.4501
lhand -23.564 -12.355
lfingers 7.12502
lthumb 2.89844 17.6051
rfemur -33.832 -12.5566 14.144
rtibia 50.9969
rfoot -21.2747 -7.57468
rtoes 0.529488
lfemur -29.0202 10.8447 -15.388
ltibia 50.1731
lfoot -23.1887 -0.539966
ltoes -5.06663
993
root 24.997 15.9726 1.68295 -1109.46 95.9825 -1117.93
lowerback 28.649 0.232922 -1.09781
upperback 7.61094 0.668916 -0.622556
thorax -7.26348 0.635511 -0.323496
lowerneck -26.9082 0.259078 -4.64594
upperneck 21.0066 3.10083 -2.84475
head 11.2631 0.655264 0.241551
rclavicle 1.43125e-014 -1.66979e-014
rhumerus -19.8172 4.89574 -81.065
rradius 50.806
rwrist -20.2978
rhand -14.4179 -27.9596
rfingers 7.12502
rthumb 11.7261 -57.6114
lclavicle 1.43125e-014 -1.66979e-014
lhumerus -16.5005 -13.3175 86.5203
lradius 43.7536
lwrist 18.7078
lhand -23.5899 -12.8349
lfingers 7.12502
lthumb 2.87339 17.1255
rfemur -33.8711 -12.7294 13.6406
rtibia 50.9944
rfoot -21.2109 -7.33839
rtoes -0.0671969
lfemur -29.0545 10.821 -15.9291
ltibia 50.2693
lfoot -23.3292 -0.362919
ltoes -5.02928
